<svg width="44" height="44" viewBox="0 0 44 44" fill="none" xmlns="http://www.w3.org/2000/svg" role="img" aria-label="Kuraimos Storage">
  <defs>
    <linearGradient id="g" x1="6" y1="6" x2="38" y2="38" gradientUnits="userSpaceOnUse">
      <stop stop-color="#89986D"/>
      <stop offset="1" stop-color="#C5D89D"/>
    </linearGradient>
    <filter id="s" x="0" y="0" width="44" height="44" filterUnits="userSpaceOnUse" color-interpolation-filters="sRGB">
      <feOffset dy="8"/>
      <feGaussianBlur stdDeviation="10"/>
      <feColorMatrix type="matrix" values="0 0 0 0 0.537255 0 0 0 0 0.596078 0 0 0 0 0.427451 0 0 0 0.20 0"/>
      <feBlend mode="normal" in2="BackgroundImageFix" result="effect1_dropShadow"/>
      <feBlend mode="normal" in="SourceGraphic" in2="effect1_dropShadow" result="shape"/>
    </filter>
  </defs>
  <g filter="url(#s)">
    <rect x="6" y="6" width="32" height="32" rx="12" fill="url(#g)"/>
    <path d="M27.9 22.2c0-2.54-2.06-4.6-4.6-4.6-1.9 0-3.54 1.15-4.25 2.8-.2-.05-.43-.07-.65-.07-1.77 0-3.2 1.43-3.2 3.2 0 1.77 1.43 3.2 3.2 3.2h9.1c1.52 0 2.75-1.23 2.75-2.75 0-1.43-1.1-2.6-2.5-2.78Z" fill="white" fill-opacity="0.92"/>
  </g>
</svg>
